<svg id="Layer_1" data-name="Layer 1" xmlns="http://www.w3.org/2000/svg" viewBox="0 0 357.07656 470.34884"><defs><style>.cls-1{fill:red;}</style></defs><path class="cls-1" d="M433.93571,31.32457a2.7709,2.7709,0,0,0-2.24222-1.24317H342.871a2.82614,2.82614,0,0,0-2.54112,1.81762l-4.85424,11.25861C327.5759,37.10776,317.55239,31.9538,305.55336,27.815c-13.36789-4.59481-28.41885-6.93129-44.69043-6.93129-45.39056,0-84.54917,21.38524-116.30435,63.52568-31.68429,42.047-47.73511,96.47006-47.73511,161.81337,0,38.41979,9.33142,67.61774,27.75014,86.76882,18.3172,19.06407,43.96612,28.73388,76.27239,28.73388,16.56242,0,31.66092-3.13975,44.87171-9.33948a197.24283,197.24283,0,0,0,33.572-20.42567c-2.51776,13.36789-5.78224,24.80053-9.748,34.02157a72.35115,72.35115,0,0,1-16.48347,24.16244c-6.35764,6.11352-15.31925,10.87349-26.58592,14.1784-11.52691,3.32828-25.26461,5.01216-40.85054,5.01216-10.81051,0-23.39945-1.87322-37.39658-5.56324a268.99763,268.99763,0,0,1-41.88987-15.08239,2.54218,2.54218,0,0,0-1.03033-.23606H94.20339a3.00654,3.00654,0,0,0-2.7933,2.69823L77.53865,472.99431a3.44491,3.44491,0,0,0,2.11653,3.91079c12.77813,3.73676,28.76529,7.0892,47.50709,9.99208a389.8487,389.8487,0,0,0,58.87608,4.33538c24.57978,0,47.11392-2.612,66.97254-7.7265A157.55426,157.55426,0,0,0,308.65363,456.299c16.57773-12.54206,30.84234-29.6,42.45546-50.68632,11.58169-21.01543,20.56667-47.69562,26.75914-79.26228L434.5021,34.14123A3.88135,3.88135,0,0,0,433.93571,31.32457ZM327.92234,110.67306,299.44789,259.5826a3.408,3.408,0,0,1-1.36885,2.156,165.27665,165.27665,0,0,1-26.3265,14.42978,70.768,70.768,0,0,1-28.16748,6.19248c-19.12691,0-32.69139-5.11448-40.30026-15.16215-7.5138-9.92924-11.32145-23.88689-11.32145-41.40888,0-37.68018,8.529-68.97854,25.3347-93.1023,16.97171-24.29618,39.6549-36.61749,67.49931-36.61749A81.9223,81.9223,0,0,1,306.50568,99.516a108.74627,108.74627,0,0,1,19.80368,7.36475A3.55116,3.55116,0,0,1,327.92234,110.67306Z" transform="translate(-77.488 -20.88372)"/></svg>