<svg id="Layer_1" data-name="Layer 1" xmlns="http://www.w3.org/2000/svg" viewBox="0 0 23.56447 31.03962"><defs><style>.cls-1{fill:red;}</style></defs><path class="cls-1" d="M27.767,1.22735a.18284.18284,0,0,0-.148-.082H21.7574a.1865.1865,0,0,0-.1677.12l-.32034.743A6.98348,6.98348,0,0,0,19.29471.99574,9.07468,9.07468,0,0,0,16.34546.53833c-2.99545,0-5.57963,1.41127-7.67525,4.19223A17.33116,17.33116,0,0,0,5.52,15.40908c0,2.53542.61581,4.46228,1.83131,5.72611a6.67885,6.67885,0,0,0,5.03343,1.89623,6.91949,6.91949,0,0,0,2.9612-.61634,13.01561,13.01561,0,0,0,2.21551-1.348,10.84061,10.84061,0,0,1-.64329,2.24518,4.77456,4.77456,0,0,1-1.08779,1.59455,4.20716,4.20716,0,0,1-1.75448.93567,9.688,9.688,0,0,1-5.16374-.03637,17.75,17.75,0,0,1-2.76443-.99533.16774.16774,0,0,0-.068-.01557H5.34714a.1984.1984,0,0,0-.18434.17806l-.91542,5.401a.22734.22734,0,0,0,.13968.25808,25.201,25.201,0,0,0,3.13512.65941,25.72785,25.72785,0,0,0,3.8854.2861,17.81671,17.81671,0,0,0,4.4197-.50989,10.16458,10.16458,0,0,0,6.47377-5.14041A18.15849,18.15849,0,0,0,24.067,20.69692L27.80439,1.41323A.25617.25617,0,0,0,27.767,1.22735ZM20.7709,6.46378l-1.87911,9.827a.22488.22488,0,0,1-.09034.14228,10.90718,10.90718,0,0,1-1.73735.95226,4.67016,4.67016,0,0,1-1.85885.40866,3.15343,3.15343,0,0,1-2.65953-1.00059,4.46069,4.46069,0,0,1-.74713-2.73269,10.55589,10.55589,0,0,1,1.6719-6.14408A5.21433,5.21433,0,0,1,17.925,5.50008a5.406,5.406,0,0,1,1.43259.22741,7.17614,7.17614,0,0,1,1.3069.486A.23436.23436,0,0,1,20.7709,6.46378Z" transform="translate(-4.24404 -0.53833)"/></svg>